solid OpenSCAD_Model
  facet normal 0.587784 0.809018 -0
    outer loop
      vertex 5.42705 4.76336 2
      vertex 3.92705 5.85317 20
      vertex 5.42705 4.76336 20
    endloop
  endfacet
  facet normal 0.587784 0.809018 0
    outer loop
      vertex 3.92705 5.85317 20
      vertex 5.42705 4.76336 2
      vertex 3.92705 5.85317 2
    endloop
  endfacet
  facet normal 0.951057 0.309017 2.27466e-18
    outer loop
      vertex 6 3 20
      vertex 5.42705 4.76336 2
      vertex 5.42705 4.76336 20
    endloop
  endfacet
  facet normal 0.951057 0.309017 2.27466e-18
    outer loop
      vertex 5.42705 4.76336 2
      vertex 6 3 20
      vertex 6 3 2
    endloop
  endfacet
  facet normal 0 1 -0
    outer loop
      vertex 3.92705 5.85317 2
      vertex 2.07295 5.85317 20
      vertex 3.92705 5.85317 20
    endloop
  endfacet
  facet normal 0 1 0
    outer loop
      vertex 2.07295 5.85317 20
      vertex 3.92705 5.85317 2
      vertex 2.07295 5.85317 2
    endloop
  endfacet
  facet normal 0 0 1
    outer loop
      vertex 5.42705 4.76336 20
      vertex 4.24698 4.56366 20
      vertex 5 3 20
    endloop
  endfacet
  facet normal 0 0 1
    outer loop
      vertex 3.92705 5.85317 20
      vertex 4.24698 4.56366 20
      vertex 5.42705 4.76336 20
    endloop
  endfacet
  facet normal 0 0 1
    outer loop
      vertex 3.92705 5.85317 20
      vertex 2.55496 4.94986 20
      vertex 4.24698 4.56366 20
    endloop
  endfacet
  facet normal -0 0 1
    outer loop
      vertex 2.07295 5.85317 20
      vertex 2.55496 4.94986 20
      vertex 3.92705 5.85317 20
    endloop
  endfacet
  facet normal -0 0 1
    outer loop
      vertex 2 5.80017 20
      vertex 2.55496 4.94986 20
      vertex 2.07295 5.85317 20
    endloop
  endfacet
  facet normal 0 0 1
    outer loop
      vertex 2.55496 4.94986 20
      vertex 2 5.80017 20
      vertex 2 4.50729 20
    endloop
  endfacet
  facet normal -0 0 1
    outer loop
      vertex 4.24698 15.4363 20
      vertex 5.42705 15.2366 20
      vertex 5 17 20
    endloop
  endfacet
  facet normal 0 0 1
    outer loop
      vertex 4.24698 15.4363 20
      vertex 3.92705 14.1468 20
      vertex 5.42705 15.2366 20
    endloop
  endfacet
  facet normal -0 0 1
    outer loop
      vertex 2.55496 15.0501 20
      vertex 3.92705 14.1468 20
      vertex 4.24698 15.4363 20
    endloop
  endfacet
  facet normal 0 0 1
    outer loop
      vertex 2.55496 15.0501 20
      vertex 2.07295 14.1468 20
      vertex 3.92705 14.1468 20
    endloop
  endfacet
  facet normal 0 0 1
    outer loop
      vertex 2 14.1998 20
      vertex 2.55496 15.0501 20
      vertex 2 15.4927 20
    endloop
  endfacet
  facet normal 0 0 1
    outer loop
      vertex 2.55496 15.0501 20
      vertex 2 14.1998 20
      vertex 2.07295 14.1468 20
    endloop
  endfacet
  facet normal 0 0 1
    outer loop
      vertex 5 3 20
      vertex 6 3 20
      vertex 5.42705 4.76336 20
    endloop
  endfacet
  facet normal 0 0 1
    outer loop
      vertex 15.1981 2.13223 20
      vertex 14 3 20
      vertex 14.3249 2 20
    endloop
  endfacet
  facet normal 0 0 1
    outer loop
      vertex 15.1981 16.1322 20
      vertex 14 17 20
      vertex 14.5729 15.2366 20
    endloop
  endfacet
  facet normal 0 0 1
    outer loop
      vertex 5 17 20
      vertex 6 17 20
      vertex 5.67508 18 20
    endloop
  endfacet
  facet normal 0 0 1
    outer loop
      vertex 17.9271 5.85317 20
      vertex 18 4.62003 20
      vertex 18 5.80017 20
    endloop
  endfacet
  facet normal 0 0 1
    outer loop
      vertex 17.9271 5.85317 20
      vertex 16.555 4.94986 20
      vertex 18 4.62003 20
    endloop
  endfacet
  facet normal -0 0 1
    outer loop
      vertex 16.0729 5.85317 20
      vertex 16.555 4.94986 20
      vertex 17.9271 5.85317 20
    endloop
  endfacet
  facet normal 0 0 1
    outer loop
      vertex 14.5729 4.76336 20
      vertex 16.555 4.94986 20
      vertex 16.0729 5.85317 20
    endloop
  endfacet
  facet normal 0 0 1
    outer loop
      vertex 14 3 20
      vertex 15.1981 3.86777 20
      vertex 14.5729 4.76336 20
    endloop
  endfacet
  facet normal 0 0 1
    outer loop
      vertex 16.555 4.94986 20
      vertex 14.5729 4.76336 20
      vertex 15.1981 3.86777 20
    endloop
  endfacet
  facet normal 0 0 1
    outer loop
      vertex 18 15.38 20
      vertex 17.9271 14.1468 20
      vertex 18 14.1998 20
    endloop
  endfacet
  facet normal -0 0 1
    outer loop
      vertex 16.555 15.0501 20
      vertex 17.9271 14.1468 20
      vertex 18 15.38 20
    endloop
  endfacet
  facet normal 0 0 1
    outer loop
      vertex 16.555 15.0501 20
      vertex 16.0729 14.1468 20
      vertex 17.9271 14.1468 20
    endloop
  endfacet
  facet normal -0 0 1
    outer loop
      vertex 14.5729 15.2366 20
      vertex 16.555 15.0501 20
      vertex 15.1981 16.1322 20
    endloop
  endfacet
  facet normal 0 0 1
    outer loop
      vertex 16.555 15.0501 20
      vertex 14.5729 15.2366 20
      vertex 16.0729 14.1468 20
    endloop
  endfacet
  facet normal 0 0 1
    outer loop
      vertex 18 15.38 20
      vertex 20 20 20
      vertex 18 18 20
    endloop
  endfacet
  facet normal 0 0 1
    outer loop
      vertex 20 20 20
      vertex 15.3639 18 20
      vertex 18 18 20
    endloop
  endfacet
  facet normal 0 0 1
    outer loop
      vertex 14 17 20
      vertex 15.1981 17.8678 20
      vertex 14.3249 18 20
    endloop
  endfacet
  facet normal 0 0 1
    outer loop
      vertex 15.1981 17.8678 20
      vertex 14 17 20
      vertex 15.1981 16.1322 20
    endloop
  endfacet
  facet normal 0 0 1
    outer loop
      vertex 15.3639 18 20
      vertex 14.3249 18 20
      vertex 15.1981 17.8678 20
    endloop
  endfacet
  facet normal 0 0 1
    outer loop
      vertex 20 20 20
      vertex 14.3249 18 20
      vertex 15.3639 18 20
    endloop
  endfacet
  facet normal 0 0 1
    outer loop
      vertex 20 20 20
      vertex 5.67508 18 20
      vertex 14.3249 18 20
    endloop
  endfacet
  facet normal 0 0 1
    outer loop
      vertex 6 17 20
      vertex 5 17 20
      vertex 5.42705 15.2366 20
    endloop
  endfacet
  facet normal 0 0 1
    outer loop
      vertex 5.67508 18 20
      vertex 4.51842 18 20
      vertex 5 17 20
    endloop
  endfacet
  facet normal -0 0 1
    outer loop
      vertex 0 20 20
      vertex 5.67508 18 20
      vertex 20 20 20
    endloop
  endfacet
  facet normal 0 0 1
    outer loop
      vertex 5.67508 18 20
      vertex 0 20 20
      vertex 4.51842 18 20
    endloop
  endfacet
  facet normal 0 0 1
    outer loop
      vertex 0 20 20
      vertex 2 15.4927 20
      vertex 2 18 20
    endloop
  endfacet
  facet normal 0 0 1
    outer loop
      vertex 2 15.4927 20
      vertex 0 20 20
      vertex 2 14.1998 20
    endloop
  endfacet
  facet normal 0 0 1
    outer loop
      vertex 2 14.1998 20
      vertex 0 20 20
      vertex 2 5.80017 20
    endloop
  endfacet
  facet normal 0 0 1
    outer loop
      vertex 0 0 20
      vertex 2 5.80017 20
      vertex 0 20 20
    endloop
  endfacet
  facet normal 0 0 1
    outer loop
      vertex 2 5.80017 20
      vertex 0 0 20
      vertex 2 4.50729 20
    endloop
  endfacet
  facet normal 0 0 1
    outer loop
      vertex 4.51842 18 20
      vertex 0 20 20
      vertex 2 18 20
    endloop
  endfacet
  facet normal 0 0 1
    outer loop
      vertex 18 14.1998 20
      vertex 20 20 20
      vertex 18 15.38 20
    endloop
  endfacet
  facet normal 0 0 1
    outer loop
      vertex 20 20 20
      vertex 18 14.1998 20
      vertex 20 0 20
    endloop
  endfacet
  facet normal -0 0 1
    outer loop
      vertex 18 5.80017 20
      vertex 20 0 20
      vertex 18 14.1998 20
    endloop
  endfacet
  facet normal -0 0 1
    outer loop
      vertex 18 4.62003 20
      vertex 20 0 20
      vertex 18 5.80017 20
    endloop
  endfacet
  facet normal -0 0 1
    outer loop
      vertex 18 2 20
      vertex 20 0 20
      vertex 18 4.62003 20
    endloop
  endfacet
  facet normal -0 0 1
    outer loop
      vertex 15.3639 2 20
      vertex 20 0 20
      vertex 18 2 20
    endloop
  endfacet
  facet normal -0 0 1
    outer loop
      vertex 14 3 20
      vertex 15.1981 2.13223 20
      vertex 15.1981 3.86777 20
    endloop
  endfacet
  facet normal 0 0 1
    outer loop
      vertex 14.3249 2 20
      vertex 15.3639 2 20
      vertex 15.1981 2.13223 20
    endloop
  endfacet
  facet normal -0 0 1
    outer loop
      vertex 14.3249 2 20
      vertex 20 0 20
      vertex 15.3639 2 20
    endloop
  endfacet
  facet normal -0 0 1
    outer loop
      vertex 5.67508 2 20
      vertex 20 0 20
      vertex 14.3249 2 20
    endloop
  endfacet
  facet normal 0 0 1
    outer loop
      vertex 6 3 20
      vertex 5 3 20
      vertex 5.67508 2 20
    endloop
  endfacet
  facet normal 0 0 1
    outer loop
      vertex 4.51842 2 20
      vertex 5.67508 2 20
      vertex 5 3 20
    endloop
  endfacet
  facet normal 0 0 1
    outer loop
      vertex 0 0 20
      vertex 5.67508 2 20
      vertex 4.51842 2 20
    endloop
  endfacet
  facet normal 0 0 1
    outer loop
      vertex 0 0 20
      vertex 4.51842 2 20
      vertex 2 2 20
    endloop
  endfacet
  facet normal 0 0 1
    outer loop
      vertex 5.67508 2 20
      vertex 0 0 20
      vertex 20 0 20
    endloop
  endfacet
  facet normal 0 0 1
    outer loop
      vertex 2 4.50729 20
      vertex 0 0 20
      vertex 2 2 20
    endloop
  endfacet
  facet normal 0.951056 -0.309017 0
    outer loop
      vertex 5.67508 2 20
      vertex 6 3 2
      vertex 6 3 20
    endloop
  endfacet
  facet normal 0.951056 -0.309017 0
    outer loop
      vertex 6 3 2
      vertex 5.67508 2 20
      vertex 5.67508 2 2
    endloop
  endfacet
  facet normal -0.587776 0.809024 0
    outer loop
      vertex 2.07295 5.85317 2
      vertex 2 5.80017 20
      vertex 2.07295 5.85317 20
    endloop
  endfacet
  facet normal -0.587776 0.809024 0
    outer loop
      vertex 2 5.80017 20
      vertex 2.07295 5.85317 2
      vertex 2 5.80017 2
    endloop
  endfacet
  facet normal 0 0 -1
    outer loop
      vertex 0 0 0
      vertex 20 20 0
      vertex 20 0 0
    endloop
  endfacet
  facet normal -0 0 -1
    outer loop
      vertex 20 20 0
      vertex 0 0 0
      vertex 0 20 0
    endloop
  endfacet
  facet normal -0.222525 -0.974927 0
    outer loop
      vertex 2.55496 4.94986 2
      vertex 4.24698 4.56366 20
      vertex 2.55496 4.94986 20
    endloop
  endfacet
  facet normal -0.222525 -0.974927 -0
    outer loop
      vertex 4.24698 4.56366 20
      vertex 2.55496 4.94986 2
      vertex 4.24698 4.56366 2
    endloop
  endfacet
  facet normal -0.900969 -0.433884 1.06448e-18
    outer loop
      vertex 5 3 2
      vertex 4.24698 4.56366 20
      vertex 4.24698 4.56366 2
    endloop
  endfacet
  facet normal -0.900969 -0.433884 1.06448e-18
    outer loop
      vertex 4.24698 4.56366 20
      vertex 5 3 2
      vertex 5 3 20
    endloop
  endfacet
  facet normal -0.900967 0.433888 0
    outer loop
      vertex 4.51842 2 2
      vertex 5 3 20
      vertex 5 3 2
    endloop
  endfacet
  facet normal -0.900967 0.433888 0
    outer loop
      vertex 5 3 20
      vertex 4.51842 2 2
      vertex 4.51842 2 20
    endloop
  endfacet
  facet normal 0.623493 -0.781829 0
    outer loop
      vertex 2 4.50729 2
      vertex 2.55496 4.94986 20
      vertex 2 4.50729 20
    endloop
  endfacet
  facet normal 0.623493 -0.781829 0
    outer loop
      vertex 2.55496 4.94986 20
      vertex 2 4.50729 2
      vertex 2.55496 4.94986 2
    endloop
  endfacet
  facet normal -0.951062 -0.309 0
    outer loop
      vertex 14.3249 2 2
      vertex 14 3 20
      vertex 14 3 2
    endloop
  endfacet
  facet normal -0.951062 -0.309 0
    outer loop
      vertex 14 3 20
      vertex 14.3249 2 2
      vertex 14.3249 2 20
    endloop
  endfacet
  facet normal 0.58804 0.808832 -0
    outer loop
      vertex 18 5.80017 2
      vertex 17.9271 5.85317 20
      vertex 18 5.80017 20
    endloop
  endfacet
  facet normal 0.58804 0.808832 0
    outer loop
      vertex 17.9271 5.85317 20
      vertex 18 5.80017 2
      vertex 17.9271 5.85317 2
    endloop
  endfacet
  facet normal 0 1 -0
    outer loop
      vertex 17.9271 5.85317 2
      vertex 16.0729 5.85317 20
      vertex 17.9271 5.85317 20
    endloop
  endfacet
  facet normal 0 1 0
    outer loop
      vertex 16.0729 5.85317 20
      vertex 17.9271 5.85317 2
      vertex 16.0729 5.85317 2
    endloop
  endfacet
  facet normal -0.587784 0.809018 0
    outer loop
      vertex 16.0729 5.85317 2
      vertex 14.5729 4.76336 20
      vertex 16.0729 5.85317 20
    endloop
  endfacet
  facet normal -0.587784 0.809018 0
    outer loop
      vertex 14.5729 4.76336 20
      vertex 16.0729 5.85317 2
      vertex 14.5729 4.76336 2
    endloop
  endfacet
  facet normal -0.951065 0.308992 -2.42736e-18
    outer loop
      vertex 14 3 2
      vertex 14.5729 4.76336 20
      vertex 14.5729 4.76336 2
    endloop
  endfacet
  facet normal -0.951065 0.308992 -2.42736e-18
    outer loop
      vertex 14.5729 4.76336 20
      vertex 14 3 2
      vertex 14 3 20
    endloop
  endfacet
  facet normal -0.222533 -0.974925 0
    outer loop
      vertex 16.555 4.94986 2
      vertex 18 4.62003 20
      vertex 16.555 4.94986 20
    endloop
  endfacet
  facet normal -0.222533 -0.974925 -0
    outer loop
      vertex 18 4.62003 20
      vertex 16.555 4.94986 2
      vertex 18 4.62003 2
    endloop
  endfacet
  facet normal 0.623515 0.781811 -0
    outer loop
      vertex 15.3639 2 2
      vertex 15.1981 2.13223 20
      vertex 15.3639 2 20
    endloop
  endfacet
  facet normal 0.623515 0.781811 0
    outer loop
      vertex 15.1981 2.13223 20
      vertex 15.3639 2 2
      vertex 15.1981 2.13223 2
    endloop
  endfacet
  facet normal 1 -0 0
    outer loop
      vertex 15.1981 2.13223 20
      vertex 15.1981 3.86777 2
      vertex 15.1981 3.86777 20
    endloop
  endfacet
  facet normal 1 0 0
    outer loop
      vertex 15.1981 3.86777 2
      vertex 15.1981 2.13223 20
      vertex 15.1981 2.13223 2
    endloop
  endfacet
  facet normal 0.623489 -0.781832 0
    outer loop
      vertex 15.1981 3.86777 2
      vertex 16.555 4.94986 20
      vertex 15.1981 3.86777 20
    endloop
  endfacet
  facet normal 0.623489 -0.781832 0
    outer loop
      vertex 16.555 4.94986 20
      vertex 15.1981 3.86777 2
      vertex 16.555 4.94986 2
    endloop
  endfacet
  facet normal 0.951056 0.309017 0
    outer loop
      vertex 6 17 20
      vertex 5.67508 18 2
      vertex 5.67508 18 20
    endloop
  endfacet
  facet normal 0.951056 0.309017 0
    outer loop
      vertex 5.67508 18 2
      vertex 6 17 20
      vertex 6 17 2
    endloop
  endfacet
  facet normal -0.587776 -0.809024 0
    outer loop
      vertex 2 14.1998 2
      vertex 2.07295 14.1468 20
      vertex 2 14.1998 20
    endloop
  endfacet
  facet normal -0.587776 -0.809024 -0
    outer loop
      vertex 2.07295 14.1468 20
      vertex 2 14.1998 2
      vertex 2.07295 14.1468 2
    endloop
  endfacet
  facet normal 0.951059 -0.30901 -1.97567e-18
    outer loop
      vertex 5.42705 15.2366 20
      vertex 6 17 2
      vertex 6 17 20
    endloop
  endfacet
  facet normal 0.951059 -0.30901 -1.97567e-18
    outer loop
      vertex 6 17 2
      vertex 5.42705 15.2366 20
      vertex 5.42705 15.2366 2
    endloop
  endfacet
  facet normal 0 -1 0
    outer loop
      vertex 2.07295 14.1468 2
      vertex 3.92705 14.1468 20
      vertex 2.07295 14.1468 20
    endloop
  endfacet
  facet normal 0 -1 -0
    outer loop
      vertex 3.92705 14.1468 20
      vertex 2.07295 14.1468 2
      vertex 3.92705 14.1468 2
    endloop
  endfacet
  facet normal 0.58778 -0.809021 0
    outer loop
      vertex 3.92705 14.1468 2
      vertex 5.42705 15.2366 20
      vertex 3.92705 14.1468 20
    endloop
  endfacet
  facet normal 0.58778 -0.809021 0
    outer loop
      vertex 5.42705 15.2366 20
      vertex 3.92705 14.1468 2
      vertex 5.42705 15.2366 2
    endloop
  endfacet
  facet normal -0.900967 -0.433888 0
    outer loop
      vertex 5 17 2
      vertex 4.51842 18 20
      vertex 4.51842 18 2
    endloop
  endfacet
  facet normal -0.900967 -0.433888 0
    outer loop
      vertex 4.51842 18 20
      vertex 5 17 2
      vertex 5 17 20
    endloop
  endfacet
  facet normal -0.900973 0.433875 -1.04992e-18
    outer loop
      vertex 4.24698 15.4363 2
      vertex 5 17 20
      vertex 5 17 2
    endloop
  endfacet
  facet normal -0.900973 0.433875 -1.04992e-18
    outer loop
      vertex 5 17 20
      vertex 4.24698 15.4363 2
      vertex 4.24698 15.4363 20
    endloop
  endfacet
  facet normal 0.623519 0.781808 -0
    outer loop
      vertex 2.55496 15.0501 2
      vertex 2 15.4927 20
      vertex 2.55496 15.0501 20
    endloop
  endfacet
  facet normal 0.623519 0.781808 0
    outer loop
      vertex 2 15.4927 20
      vertex 2.55496 15.0501 2
      vertex 2 15.4927 2
    endloop
  endfacet
  facet normal -0.222525 0.974927 0
    outer loop
      vertex 4.24698 15.4363 2
      vertex 2.55496 15.0501 20
      vertex 4.24698 15.4363 20
    endloop
  endfacet
  facet normal -0.222525 0.974927 0
    outer loop
      vertex 2.55496 15.0501 20
      vertex 4.24698 15.4363 2
      vertex 2.55496 15.0501 2
    endloop
  endfacet
  facet normal -0.951067 -0.308986 -2.82944e-18
    outer loop
      vertex 14.5729 15.2366 2
      vertex 14 17 20
      vertex 14 17 2
    endloop
  endfacet
  facet normal -0.951067 -0.308986 -2.82944e-18
    outer loop
      vertex 14 17 20
      vertex 14.5729 15.2366 2
      vertex 14.5729 15.2366 20
    endloop
  endfacet
  facet normal -0.58778 -0.809021 0
    outer loop
      vertex 14.5729 15.2366 2
      vertex 16.0729 14.1468 20
      vertex 14.5729 15.2366 20
    endloop
  endfacet
  facet normal -0.58778 -0.809021 -0
    outer loop
      vertex 16.0729 14.1468 20
      vertex 14.5729 15.2366 2
      vertex 16.0729 14.1468 2
    endloop
  endfacet
  facet normal 0 -1 0
    outer loop
      vertex 16.0729 14.1468 2
      vertex 17.9271 14.1468 20
      vertex 16.0729 14.1468 20
    endloop
  endfacet
  facet normal 0 -1 -0
    outer loop
      vertex 17.9271 14.1468 20
      vertex 16.0729 14.1468 2
      vertex 17.9271 14.1468 2
    endloop
  endfacet
  facet normal 0.58804 -0.808832 0
    outer loop
      vertex 17.9271 14.1468 2
      vertex 18 14.1998 20
      vertex 17.9271 14.1468 20
    endloop
  endfacet
  facet normal 0.58804 -0.808832 0
    outer loop
      vertex 18 14.1998 20
      vertex 17.9271 14.1468 2
      vertex 18 14.1998 2
    endloop
  endfacet
  facet normal -0.951062 0.309 0
    outer loop
      vertex 14 17 2
      vertex 14.3249 18 20
      vertex 14.3249 18 2
    endloop
  endfacet
  facet normal -0.951062 0.309 0
    outer loop
      vertex 14.3249 18 20
      vertex 14 17 2
      vertex 14 17 20
    endloop
  endfacet
  facet normal 0.623493 0.781829 -0
    outer loop
      vertex 16.555 15.0501 2
      vertex 15.1981 16.1322 20
      vertex 16.555 15.0501 20
    endloop
  endfacet
  facet normal 0.623493 0.781829 0
    outer loop
      vertex 15.1981 16.1322 20
      vertex 16.555 15.0501 2
      vertex 15.1981 16.1322 2
    endloop
  endfacet
  facet normal -0.222577 0.974915 0
    outer loop
      vertex 18 15.38 2
      vertex 16.555 15.0501 20
      vertex 18 15.38 20
    endloop
  endfacet
  facet normal -0.222577 0.974915 0
    outer loop
      vertex 16.555 15.0501 20
      vertex 18 15.38 2
      vertex 16.555 15.0501 2
    endloop
  endfacet
  facet normal 1 -0 0
    outer loop
      vertex 15.1981 16.1322 20
      vertex 15.1981 17.8678 2
      vertex 15.1981 17.8678 20
    endloop
  endfacet
  facet normal 1 0 0
    outer loop
      vertex 15.1981 17.8678 2
      vertex 15.1981 16.1322 20
      vertex 15.1981 16.1322 2
    endloop
  endfacet
  facet normal 0.623429 -0.78188 0
    outer loop
      vertex 15.1981 17.8678 2
      vertex 15.3639 18 20
      vertex 15.1981 17.8678 20
    endloop
  endfacet
  facet normal 0.623429 -0.78188 0
    outer loop
      vertex 15.3639 18 20
      vertex 15.1981 17.8678 2
      vertex 15.3639 18 2
    endloop
  endfacet
  facet normal 1 -0 0
    outer loop
      vertex 20 0 20
      vertex 20 20 0
      vertex 20 20 20
    endloop
  endfacet
  facet normal 1 0 0
    outer loop
      vertex 20 20 0
      vertex 20 0 20
      vertex 20 0 0
    endloop
  endfacet
  facet normal 0 0 1
    outer loop
      vertex 4.51842 18 2
      vertex 4.24698 15.4363 2
      vertex 5 17 2
    endloop
  endfacet
  facet normal -0 0 1
    outer loop
      vertex 2 18 2
      vertex 4.24698 15.4363 2
      vertex 4.51842 18 2
    endloop
  endfacet
  facet normal 0 0 1
    outer loop
      vertex 4.24698 15.4363 2
      vertex 2 18 2
      vertex 2 15.4927 2
    endloop
  endfacet
  facet normal 0 0 1
    outer loop
      vertex 4.24698 15.4363 2
      vertex 2 15.4927 2
      vertex 2.55496 15.0501 2
    endloop
  endfacet
  facet normal 0 0 1
    outer loop
      vertex 18 18 2
      vertex 16.555 15.0501 2
      vertex 18 15.38 2
    endloop
  endfacet
  facet normal 0 0 1
    outer loop
      vertex 15.1981 16.1322 2
      vertex 18 18 2
      vertex 15.3639 18 2
    endloop
  endfacet
  facet normal 0 0 1
    outer loop
      vertex 15.1981 16.1322 2
      vertex 15.3639 18 2
      vertex 15.1981 17.8678 2
    endloop
  endfacet
  facet normal 0 0 1
    outer loop
      vertex 18 18 2
      vertex 15.1981 16.1322 2
      vertex 16.555 15.0501 2
    endloop
  endfacet
  facet normal 0 0 1
    outer loop
      vertex 16.555 4.94986 2
      vertex 18 2 2
      vertex 18 4.62003 2
    endloop
  endfacet
  facet normal -0 0 1
    outer loop
      vertex 15.1981 3.86777 2
      vertex 18 2 2
      vertex 16.555 4.94986 2
    endloop
  endfacet
  facet normal 0 0 1
    outer loop
      vertex 18 2 2
      vertex 15.1981 3.86777 2
      vertex 15.3639 2 2
    endloop
  endfacet
  facet normal 0 0 1
    outer loop
      vertex 15.3639 2 2
      vertex 15.1981 3.86777 2
      vertex 15.1981 2.13223 2
    endloop
  endfacet
  facet normal 0 0 1
    outer loop
      vertex 4.24698 4.56366 2
      vertex 4.51842 2 2
      vertex 5 3 2
    endloop
  endfacet
  facet normal 0 0 1
    outer loop
      vertex 2 4.50729 2
      vertex 4.24698 4.56366 2
      vertex 2.55496 4.94986 2
    endloop
  endfacet
  facet normal 0 0 1
    outer loop
      vertex 2 2 2
      vertex 4.24698 4.56366 2
      vertex 2 4.50729 2
    endloop
  endfacet
  facet normal 0 0 1
    outer loop
      vertex 4.24698 4.56366 2
      vertex 2 2 2
      vertex 4.51842 2 2
    endloop
  endfacet
  facet normal 0 0 1
    outer loop
      vertex 5.42705 4.76336 2
      vertex 14.5729 4.76336 2
      vertex 5.42705 15.2366 2
    endloop
  endfacet
  facet normal 0 0 1
    outer loop
      vertex 14.5729 4.76336 2
      vertex 5.42705 4.76336 2
      vertex 6 3 2
    endloop
  endfacet
  facet normal -0 0 1
    outer loop
      vertex 3.92705 14.1468 2
      vertex 5.42705 4.76336 2
      vertex 5.42705 15.2366 2
    endloop
  endfacet
  facet normal 0 0 1
    outer loop
      vertex 3.92705 14.1468 2
      vertex 3.92705 5.85317 2
      vertex 5.42705 4.76336 2
    endloop
  endfacet
  facet normal -0 0 1
    outer loop
      vertex 2.07295 14.1468 2
      vertex 3.92705 5.85317 2
      vertex 3.92705 14.1468 2
    endloop
  endfacet
  facet normal 0 0 1
    outer loop
      vertex 2.07295 14.1468 2
      vertex 2.07295 5.85317 2
      vertex 3.92705 5.85317 2
    endloop
  endfacet
  facet normal 0 0 1
    outer loop
      vertex 2 14.1998 2
      vertex 2.07295 5.85317 2
      vertex 2.07295 14.1468 2
    endloop
  endfacet
  facet normal 0 0 1
    outer loop
      vertex 2.07295 5.85317 2
      vertex 2 14.1998 2
      vertex 2 5.80017 2
    endloop
  endfacet
  facet normal 0 0 1
    outer loop
      vertex 14.5729 15.2366 2
      vertex 5.42705 15.2366 2
      vertex 14.5729 4.76336 2
    endloop
  endfacet
  facet normal 0 0 1
    outer loop
      vertex 14.3249 18 2
      vertex 6 17 2
      vertex 14 17 2
    endloop
  endfacet
  facet normal 0 -0 1
    outer loop
      vertex 6 17 2
      vertex 14.3249 18 2
      vertex 5.67508 18 2
    endloop
  endfacet
  facet normal -0 0 1
    outer loop
      vertex 17.9271 14.1468 2
      vertex 18 5.80017 2
      vertex 18 14.1998 2
    endloop
  endfacet
  facet normal 0 0 1
    outer loop
      vertex 17.9271 14.1468 2
      vertex 17.9271 5.85317 2
      vertex 18 5.80017 2
    endloop
  endfacet
  facet normal -0 0 1
    outer loop
      vertex 16.0729 14.1468 2
      vertex 17.9271 5.85317 2
      vertex 17.9271 14.1468 2
    endloop
  endfacet
  facet normal 0 0 1
    outer loop
      vertex 16.0729 14.1468 2
      vertex 16.0729 5.85317 2
      vertex 17.9271 5.85317 2
    endloop
  endfacet
  facet normal 0 0 1
    outer loop
      vertex 14.5729 15.2366 2
      vertex 16.0729 5.85317 2
      vertex 16.0729 14.1468 2
    endloop
  endfacet
  facet normal 0 0 1
    outer loop
      vertex 14.5729 15.2366 2
      vertex 14.5729 4.76336 2
      vertex 16.0729 5.85317 2
    endloop
  endfacet
  facet normal -0 0 1
    outer loop
      vertex 6 17 2
      vertex 14.5729 15.2366 2
      vertex 14 17 2
    endloop
  endfacet
  facet normal 0 0 1
    outer loop
      vertex 5.42705 15.2366 2
      vertex 14.5729 15.2366 2
      vertex 6 17 2
    endloop
  endfacet
  facet normal 0 0 1
    outer loop
      vertex 14.5729 4.76336 2
      vertex 6 3 2
      vertex 14 3 2
    endloop
  endfacet
  facet normal 0 0 1
    outer loop
      vertex 14 3 2
      vertex 6 3 2
      vertex 14.3249 2 2
    endloop
  endfacet
  facet normal 0 0 1
    outer loop
      vertex 14.3249 2 2
      vertex 6 3 2
      vertex 5.67508 2 2
    endloop
  endfacet
  facet normal -1 0 0
    outer loop
      vertex 0 0 0
      vertex 0 20 20
      vertex 0 20 0
    endloop
  endfacet
  facet normal -1 -0 0
    outer loop
      vertex 0 20 20
      vertex 0 0 0
      vertex 0 0 20
    endloop
  endfacet
  facet normal 0 1 -0
    outer loop
      vertex 20 20 0
      vertex 0 20 20
      vertex 20 20 20
    endloop
  endfacet
  facet normal 0 1 0
    outer loop
      vertex 0 20 20
      vertex 20 20 0
      vertex 0 20 0
    endloop
  endfacet
  facet normal 0 -1 0
    outer loop
      vertex 0 0 0
      vertex 20 0 20
      vertex 0 0 20
    endloop
  endfacet
  facet normal 0 -1 -0
    outer loop
      vertex 20 0 20
      vertex 0 0 0
      vertex 20 0 0
    endloop
  endfacet
  facet normal 1 -0 0
    outer loop
      vertex 2 15.4927 20
      vertex 2 18 2
      vertex 2 18 20
    endloop
  endfacet
  facet normal 1 0 0
    outer loop
      vertex 2 18 2
      vertex 2 15.4927 20
      vertex 2 15.4927 2
    endloop
  endfacet
  facet normal 1 -0 0
    outer loop
      vertex 2 2 20
      vertex 2 4.50729 2
      vertex 2 4.50729 20
    endloop
  endfacet
  facet normal 1 0 0
    outer loop
      vertex 2 4.50729 2
      vertex 2 2 20
      vertex 2 2 2
    endloop
  endfacet
  facet normal 1 -0 0
    outer loop
      vertex 2 5.80017 20
      vertex 2 14.1998 2
      vertex 2 14.1998 20
    endloop
  endfacet
  facet normal 1 0 0
    outer loop
      vertex 2 14.1998 2
      vertex 2 5.80017 20
      vertex 2 5.80017 2
    endloop
  endfacet
  facet normal 0 1 -0
    outer loop
      vertex 18 2 2
      vertex 15.3639 2 20
      vertex 18 2 20
    endloop
  endfacet
  facet normal 0 1 0
    outer loop
      vertex 15.3639 2 20
      vertex 18 2 2
      vertex 15.3639 2 2
    endloop
  endfacet
  facet normal 0 1 -0
    outer loop
      vertex 4.51842 2 2
      vertex 2 2 20
      vertex 4.51842 2 20
    endloop
  endfacet
  facet normal 0 1 0
    outer loop
      vertex 2 2 20
      vertex 4.51842 2 2
      vertex 2 2 2
    endloop
  endfacet
  facet normal 0 1 -0
    outer loop
      vertex 14.3249 2 2
      vertex 5.67508 2 20
      vertex 14.3249 2 20
    endloop
  endfacet
  facet normal 0 1 0
    outer loop
      vertex 5.67508 2 20
      vertex 14.3249 2 2
      vertex 5.67508 2 2
    endloop
  endfacet
  facet normal -1 0 0
    outer loop
      vertex 18 15.38 2
      vertex 18 18 20
      vertex 18 18 2
    endloop
  endfacet
  facet normal -1 -0 0
    outer loop
      vertex 18 18 20
      vertex 18 15.38 2
      vertex 18 15.38 20
    endloop
  endfacet
  facet normal -1 0 0
    outer loop
      vertex 18 2 2
      vertex 18 4.62003 20
      vertex 18 4.62003 2
    endloop
  endfacet
  facet normal -1 -0 0
    outer loop
      vertex 18 4.62003 20
      vertex 18 2 2
      vertex 18 2 20
    endloop
  endfacet
  facet normal -1 0 0
    outer loop
      vertex 18 5.80017 2
      vertex 18 14.1998 20
      vertex 18 14.1998 2
    endloop
  endfacet
  facet normal -1 -0 0
    outer loop
      vertex 18 14.1998 20
      vertex 18 5.80017 2
      vertex 18 5.80017 20
    endloop
  endfacet
  facet normal 0 -1 0
    outer loop
      vertex 2 18 2
      vertex 4.51842 18 20
      vertex 2 18 20
    endloop
  endfacet
  facet normal 0 -1 -0
    outer loop
      vertex 4.51842 18 20
      vertex 2 18 2
      vertex 4.51842 18 2
    endloop
  endfacet
  facet normal 0 -1 0
    outer loop
      vertex 15.3639 18 2
      vertex 18 18 20
      vertex 15.3639 18 20
    endloop
  endfacet
  facet normal 0 -1 -0
    outer loop
      vertex 18 18 20
      vertex 15.3639 18 2
      vertex 18 18 2
    endloop
  endfacet
  facet normal 0 -1 0
    outer loop
      vertex 5.67508 18 2
      vertex 14.3249 18 20
      vertex 5.67508 18 20
    endloop
  endfacet
  facet normal 0 -1 -0
    outer loop
      vertex 14.3249 18 20
      vertex 5.67508 18 2
      vertex 14.3249 18 2
    endloop
  endfacet
endsolid OpenSCAD_Model
